<svg width="171" height="53" viewBox="0 0 171 53" fill="none" xmlns="http://www.w3.org/2000/svg">
<rect y="0.636719" width="171" height="52" rx="8" fill="#222222"/>
<path d="M49.0966 19.6367C51.2841 19.6367 52.5305 18.2695 52.5341 15.9826C52.5341 13.7205 51.3054 12.364 49.2244 12.364H46.9659V19.6367H49.0966ZM47.63 19.0401V12.9606H49.1854C50.9503 12.9606 51.8878 14.1005 51.8913 15.9826C51.8913 17.8825 50.9325 19.0401 49.0575 19.0401H47.63ZM57.6323 19.7504C59.0456 19.7504 60.0328 18.5962 60.0328 16.9343C60.0328 15.2617 59.0456 14.1076 57.6323 14.1076C56.2189 14.1076 55.2317 15.2617 55.2317 16.9343C55.2317 18.5962 56.2189 19.7504 57.6323 19.7504ZM57.6323 19.1715C56.4995 19.1715 55.8674 18.1559 55.8674 16.9343C55.8674 15.7127 56.4995 14.6829 57.6323 14.6829C58.7651 14.6829 59.3972 15.7127 59.3972 16.9343C59.3972 18.1559 58.7651 19.1715 57.6323 19.1715ZM63.9458 19.6367H64.5993L65.8919 15.1658H65.9593L67.252 19.6367H67.9054L69.5531 14.1822H68.8855L67.5929 18.6708H67.5431L66.2647 14.1822H65.5936L64.3045 18.6815H64.2583L62.9657 14.1822H62.2981L63.9458 19.6367ZM72.9139 16.2276C72.9139 15.2759 73.5389 14.69 74.3983 14.69C75.2363 14.69 75.7761 15.2511 75.7761 16.1424V19.6367H76.4082V16.1033C76.4082 14.8107 75.6589 14.1112 74.5581 14.1112C73.7591 14.1112 73.2086 14.4805 72.9529 15.038H72.8961V14.1822H72.2818V19.6367H72.9139V16.2276ZM80.2049 12.364H79.5728V19.6367H80.2049V12.364ZM85.4975 19.7504C86.9109 19.7504 87.8981 18.5962 87.8981 16.9343C87.8981 15.2617 86.9109 14.1076 85.4975 14.1076C84.0842 14.1076 83.0969 15.2617 83.0969 16.9343C83.0969 18.5962 84.0842 19.7504 85.4975 19.7504ZM85.4975 19.1715C84.3647 19.1715 83.7326 18.1559 83.7326 16.9343C83.7326 15.7127 84.3647 14.6829 85.4975 14.6829C86.6303 14.6829 87.2624 15.7127 87.2624 16.9343C87.2624 18.1559 86.6303 19.1715 85.4975 19.1715ZM92.3091 19.761C93.2182 19.761 93.7722 19.2567 93.9995 18.7738H94.0385V19.6367H94.6706V15.9329C94.6706 14.4698 93.5698 14.1076 92.7353 14.1076C91.9007 14.1076 91.0414 14.4379 90.6721 15.3292L91.2722 15.5458C91.4711 15.0771 91.9647 14.6758 92.753 14.6758C93.5804 14.6758 94.0385 15.1303 94.0385 15.8761V16.0039C94.0385 16.4158 93.5272 16.4229 92.611 16.5366C91.3787 16.6893 90.5158 17.0337 90.5158 18.1133C90.5158 19.1644 91.3184 19.761 92.3091 19.761ZM92.3944 19.1822C91.6806 19.1822 91.1479 18.8022 91.1479 18.1417C91.1479 17.4812 91.6877 17.2042 92.611 17.0906C93.0584 17.0373 93.8539 16.9379 94.0385 16.7567V17.5451C94.0385 18.44 93.4029 19.1822 92.3944 19.1822ZM99.8159 19.7504C100.807 19.7504 101.268 19.1218 101.492 18.6246H101.567V19.6367H102.184V12.364H101.549V15.2227H101.492C101.275 14.7326 100.824 14.1076 99.8265 14.1076C98.4806 14.1076 97.5716 15.244 97.5716 16.9237C97.5716 18.6175 98.4771 19.7504 99.8159 19.7504ZM99.8904 19.1715C98.8038 19.1715 98.2072 18.1843 98.2072 16.913C98.2072 15.6559 98.7967 14.6829 99.8904 14.6829C100.956 14.6829 101.559 15.6062 101.559 16.913C101.559 18.2305 100.949 19.1715 99.8904 19.1715ZM111.917 19.7504C113.331 19.7504 114.318 18.5962 114.318 16.9343C114.318 15.2617 113.331 14.1076 111.917 14.1076C110.504 14.1076 109.517 15.2617 109.517 16.9343C109.517 18.5962 110.504 19.7504 111.917 19.7504ZM111.917 19.1715C110.785 19.1715 110.153 18.1559 110.153 16.9343C110.153 15.7127 110.785 14.6829 111.917 14.6829C113.05 14.6829 113.682 15.7127 113.682 16.9343C113.682 18.1559 113.05 19.1715 111.917 19.1715ZM117.838 16.2276C117.838 15.2759 118.463 14.69 119.322 14.69C120.16 14.69 120.7 15.2511 120.7 16.1424V19.6367H121.332V16.1033C121.332 14.8107 120.583 14.1112 119.482 14.1112C118.683 14.1112 118.132 14.4805 117.877 15.038H117.82V14.1822H117.206V19.6367H117.838V16.2276ZM130.958 14.1822H129.803V12.8754H129.168V14.1822H128.355V14.7326H129.168V18.3619C129.168 19.2532 129.871 19.7184 130.57 19.7184C130.833 19.7184 131.011 19.6687 131.132 19.6225L130.997 19.0508C130.908 19.0756 130.794 19.1005 130.627 19.1005C130.198 19.1005 129.803 18.8981 129.803 18.2127V14.7326H130.958V14.1822ZM134.642 16.2276C134.642 15.2759 135.282 14.69 136.155 14.69C137 14.69 137.54 15.244 137.54 16.1424V19.6367H138.176V16.1033C138.176 14.8036 137.423 14.1112 136.315 14.1112C135.491 14.1112 134.955 14.4734 134.699 15.038H134.642V12.364H134.01V19.6367H134.642V16.2276ZM143.546 19.7504C144.639 19.7504 145.374 19.1573 145.623 18.4719L145.023 18.2766C144.813 18.7667 144.32 19.1715 143.546 19.1715C142.431 19.1715 141.724 18.3583 141.695 17.0977H145.758V16.7852C145.758 14.9634 144.632 14.1076 143.45 14.1076C142.036 14.1076 141.06 15.2901 141.06 16.9414C141.06 18.5962 142.019 19.7504 143.546 19.7504ZM141.699 16.5401C141.767 15.5245 142.452 14.6829 143.45 14.6829C144.426 14.6829 145.112 15.489 145.112 16.5401H141.699Z" fill="white"/>
<path d="M55.72 35.3767H49.52L48.34 38.6367H46.38L51.6 24.7967H53.66L58.86 38.6367H56.9L55.72 35.3767ZM55.2 33.9567L52.62 26.8367L50.04 33.9567H55.2ZM67.3622 27.5167C68.3355 27.5167 69.2022 27.7434 69.9622 28.1967C70.7222 28.6501 71.3155 29.3034 71.7422 30.1567C72.1822 31.0101 72.4022 32.0101 72.4022 33.1567C72.4022 34.3034 72.1822 35.3034 71.7422 36.1567C71.3155 36.9967 70.7222 37.6434 69.9622 38.0967C69.2022 38.5501 68.3355 38.7767 67.3622 38.7767C66.2955 38.7767 65.3889 38.5101 64.6422 37.9767C63.9089 37.4301 63.4022 36.7167 63.1222 35.8367V43.8367H61.3022V27.6567H63.1222V30.4567C63.4022 29.5767 63.9089 28.8701 64.6422 28.3367C65.3889 27.7901 66.2955 27.5167 67.3622 27.5167ZM66.8422 29.1367C66.1355 29.1367 65.4955 29.3034 64.9222 29.6367C64.3489 29.9567 63.9022 30.4234 63.5822 31.0367C63.2622 31.6501 63.1022 32.3567 63.1022 33.1567C63.1022 33.9567 63.2622 34.6634 63.5822 35.2767C63.9022 35.8767 64.3489 36.3434 64.9222 36.6767C65.4955 37.0101 66.1355 37.1767 66.8422 37.1767C67.9755 37.1767 68.8755 36.8234 69.5422 36.1167C70.2222 35.3967 70.5622 34.4101 70.5622 33.1567C70.5622 31.9034 70.2222 30.9234 69.5422 30.2167C68.8755 29.4967 67.9755 29.1367 66.8422 29.1367ZM81.4388 27.5167C82.4121 27.5167 83.2788 27.7434 84.0388 28.1967C84.7988 28.6501 85.3921 29.3034 85.8188 30.1567C86.2588 31.0101 86.4788 32.0101 86.4788 33.1567C86.4788 34.3034 86.2588 35.3034 85.8188 36.1567C85.3921 36.9967 84.7988 37.6434 84.0388 38.0967C83.2788 38.5501 82.4121 38.7767 81.4388 38.7767C80.3721 38.7767 79.4654 38.5101 78.7188 37.9767C77.9854 37.4301 77.4788 36.7167 77.1988 35.8367V43.8367H75.3788V27.6567H77.1988V30.4567C77.4788 29.5767 77.9854 28.8701 78.7188 28.3367C79.4654 27.7901 80.3721 27.5167 81.4388 27.5167ZM80.9188 29.1367C80.2121 29.1367 79.5721 29.3034 78.9988 29.6367C78.4254 29.9567 77.9788 30.4234 77.6588 31.0367C77.3388 31.6501 77.1788 32.3567 77.1788 33.1567C77.1788 33.9567 77.3388 34.6634 77.6588 35.2767C77.9788 35.8767 78.4254 36.3434 78.9988 36.6767C79.5721 37.0101 80.2121 37.1767 80.9188 37.1767C82.0521 37.1767 82.9521 36.8234 83.6188 36.1167C84.2988 35.3967 84.6388 34.4101 84.6388 33.1567C84.6388 31.9034 84.2988 30.9234 83.6188 30.2167C82.9521 29.4967 82.0521 29.1367 80.9188 29.1367ZM103.917 34.9767C103.917 35.6434 103.757 36.2634 103.437 36.8367C103.117 37.4101 102.63 37.8767 101.977 38.2367C101.323 38.5967 100.517 38.7767 99.5567 38.7767C98.6234 38.7767 97.7901 38.6101 97.0567 38.2767C96.3367 37.9301 95.7567 37.4634 95.3167 36.8767C94.8901 36.2767 94.6434 35.5967 94.5767 34.8367H96.5167C96.5567 35.2367 96.6901 35.6301 96.9167 36.0167C97.1567 36.3901 97.4901 36.7034 97.9167 36.9567C98.3567 37.1967 98.8834 37.3167 99.4967 37.3167C100.297 37.3167 100.91 37.1034 101.337 36.6767C101.763 36.2501 101.977 35.7034 101.977 35.0367C101.977 34.4634 101.823 33.9967 101.517 33.6367C101.223 33.2767 100.857 32.9967 100.417 32.7967C99.9767 32.5834 99.3767 32.3567 98.6167 32.1167C97.7234 31.8234 97.0034 31.5501 96.4567 31.2967C95.9234 31.0301 95.4634 30.6367 95.0767 30.1167C94.7034 29.5967 94.5167 28.9101 94.5167 28.0567C94.5167 27.3234 94.6901 26.6767 95.0367 26.1167C95.3967 25.5567 95.9034 25.1234 96.5567 24.8167C97.2234 24.5101 98.0034 24.3567 98.8967 24.3567C100.283 24.3567 101.383 24.6967 102.197 25.3767C103.01 26.0434 103.483 26.8967 103.617 27.9367H101.657C101.55 27.3767 101.263 26.8834 100.797 26.4567C100.33 26.0301 99.6967 25.8167 98.8967 25.8167C98.1634 25.8167 97.5767 26.0101 97.1367 26.3967C96.6967 26.7701 96.4767 27.3034 96.4767 27.9967C96.4767 28.5434 96.6167 28.9901 96.8967 29.3367C97.1901 29.6701 97.5501 29.9367 97.9767 30.1367C98.4034 30.3234 98.9901 30.5367 99.7367 30.7767C100.643 31.0701 101.37 31.3501 101.917 31.6167C102.477 31.8834 102.95 32.2901 103.337 32.8367C103.723 33.3701 103.917 34.0834 103.917 34.9767ZM112.204 37.0367V38.6367H110.844C109.724 38.6367 108.884 38.3701 108.324 37.8367C107.777 37.3034 107.504 36.4101 107.504 35.1567V29.2367H105.864V27.6567H107.504V24.9167H109.344V27.6567H112.184V29.2367H109.344V35.1967C109.344 35.9034 109.471 36.3901 109.724 36.6567C109.991 36.9101 110.444 37.0367 111.084 37.0367H112.204ZM120.005 27.5167C121.058 27.5167 121.998 27.7434 122.825 28.1967C123.665 28.6501 124.318 29.3034 124.785 30.1567C125.265 31.0101 125.505 32.0101 125.505 33.1567C125.505 34.3034 125.265 35.3034 124.785 36.1567C124.318 36.9967 123.665 37.6434 122.825 38.0967C121.998 38.5501 121.058 38.7767 120.005 38.7767C118.952 38.7767 118.005 38.5501 117.165 38.0967C116.338 37.6434 115.685 36.9967 115.205 36.1567C114.725 35.3034 114.485 34.3034 114.485 33.1567C114.485 32.0101 114.725 31.0101 115.205 30.1567C115.685 29.3034 116.338 28.6501 117.165 28.1967C118.005 27.7434 118.952 27.5167 120.005 27.5167ZM120.005 29.1167C119.352 29.1167 118.745 29.2634 118.185 29.5567C117.638 29.8501 117.192 30.3034 116.845 30.9167C116.512 31.5167 116.345 32.2634 116.345 33.1567C116.345 34.0367 116.512 34.7834 116.845 35.3967C117.192 35.9967 117.638 36.4434 118.185 36.7367C118.745 37.0301 119.352 37.1767 120.005 37.1767C120.658 37.1767 121.258 37.0301 121.805 36.7367C122.365 36.4434 122.812 35.9967 123.145 35.3967C123.492 34.7834 123.665 34.0367 123.665 33.1567C123.665 32.2634 123.492 31.5167 123.145 30.9167C122.812 30.3034 122.365 29.8501 121.805 29.5567C121.258 29.2634 120.658 29.1167 120.005 29.1167ZM130.296 29.8767C130.656 29.1167 131.183 28.5301 131.876 28.1167C132.57 27.6901 133.396 27.4767 134.356 27.4767V29.4567H133.796C132.77 29.4567 131.93 29.7234 131.276 30.2567C130.623 30.7767 130.296 31.6434 130.296 32.8567V38.6367H128.476V27.6567H130.296V29.8767ZM146.852 32.5367C146.852 32.9234 146.826 33.2567 146.772 33.5367H137.992C138.032 34.7901 138.386 35.7301 139.052 36.3567C139.732 36.9834 140.559 37.2967 141.532 37.2967C142.412 37.2967 143.146 37.0767 143.732 36.6367C144.332 36.1834 144.699 35.5834 144.832 34.8367H146.772C146.639 35.5967 146.339 36.2767 145.872 36.8767C145.419 37.4767 144.826 37.9434 144.092 38.2767C143.359 38.6101 142.532 38.7767 141.612 38.7767C140.559 38.7767 139.626 38.5501 138.812 38.0967C137.999 37.6434 137.359 36.9967 136.892 36.1567C136.439 35.3034 136.212 34.3034 136.212 33.1567C136.212 32.0101 136.439 31.0101 136.892 30.1567C137.359 29.3034 137.999 28.6501 138.812 28.1967C139.626 27.7434 140.559 27.5167 141.612 27.5167C142.679 27.5167 143.606 27.7434 144.392 28.1967C145.192 28.6501 145.799 29.2567 146.212 30.0167C146.639 30.7767 146.852 31.6167 146.852 32.5367ZM145.012 32.6567C145.052 31.8434 144.919 31.1634 144.612 30.6167C144.306 30.0701 143.886 29.6634 143.352 29.3967C142.819 29.1301 142.239 28.9967 141.612 28.9967C140.612 28.9967 139.772 29.3101 139.092 29.9367C138.412 30.5501 138.046 31.4567 137.992 32.6567H145.012Z" fill="white"/>
<path d="M32.716 26.5923C32.6796 22.8023 36.0217 20.9584 36.1745 20.8726C34.2818 18.282 31.3481 17.928 30.3171 17.8998C27.8532 17.6564 25.4631 19.2839 24.208 19.2839C22.9278 19.2839 20.995 17.9233 18.9118 17.9633C16.2312 18.0021 13.7234 19.4591 12.348 21.7216C9.50947 26.3348 11.6264 33.1141 14.3459 36.843C15.7063 38.6692 17.2959 40.7083 19.3766 40.6365C21.4121 40.5577 22.1725 39.4183 24.6289 39.4183C27.0628 39.4183 27.7768 40.6365 29.8988 40.5907C32.0834 40.5577 33.4588 38.7562 34.7715 36.9135C36.3436 34.8204 36.9749 32.7589 37 32.6531C36.9486 32.6366 32.7573 31.135 32.716 26.5923Z" fill="white"/>
<path d="M28.707 15.4451C29.8018 14.1598 30.5509 12.4112 30.343 10.6367C28.7584 10.7026 26.7767 11.6657 25.6355 12.9227C24.6259 14.0305 23.724 15.8461 23.957 17.5536C25.737 17.6782 27.5646 16.7104 28.707 15.4451Z" fill="white"/>
</svg>
